<mxfile host="app.diagrams.net" modified="2023-07-31T02:00:45.188Z" agent="Mozilla/5.0 (Macintosh; Intel Mac OS X 10_15_7) AppleWebKit/537.36 (KHTML, like Gecko) Chrome/114.0.0.0 Safari/537.36" etag="SVQVGWUQFFbahpTj353z" version="21.6.5" type="github">
  <diagram id="C5RBs43oDa-KdzZeNtuy" name="Page-1">
    <mxGraphModel dx="2171" dy="1136" grid="1" gridSize="10" guides="1" tooltips="1" connect="1" arrows="1" fold="1" page="1" pageScale="1" pageWidth="1169" pageHeight="827" math="0" shadow="0">
      <root>
        <mxCell id="WIyWlLk6GJQsqaUBKTNV-0" />
        <mxCell id="WIyWlLk6GJQsqaUBKTNV-1" parent="WIyWlLk6GJQsqaUBKTNV-0" />
        <mxCell id="uAa1DrB2IOAwxMJ53gUC-3" value="" style="edgeStyle=orthogonalEdgeStyle;rounded=0;orthogonalLoop=1;jettySize=auto;html=1;" edge="1" parent="WIyWlLk6GJQsqaUBKTNV-1" source="uAa1DrB2IOAwxMJ53gUC-1" target="uAa1DrB2IOAwxMJ53gUC-2">
          <mxGeometry relative="1" as="geometry" />
        </mxCell>
        <mxCell id="uAa1DrB2IOAwxMJ53gUC-1" value="加事务" style="rounded=1;whiteSpace=wrap;html=1;" vertex="1" parent="WIyWlLk6GJQsqaUBKTNV-1">
          <mxGeometry x="225" y="270" width="120" height="60" as="geometry" />
        </mxCell>
        <mxCell id="uAa1DrB2IOAwxMJ53gUC-5" value="" style="edgeStyle=orthogonalEdgeStyle;rounded=0;orthogonalLoop=1;jettySize=auto;html=1;" edge="1" parent="WIyWlLk6GJQsqaUBKTNV-1" source="uAa1DrB2IOAwxMJ53gUC-2" target="uAa1DrB2IOAwxMJ53gUC-4">
          <mxGeometry relative="1" as="geometry" />
        </mxCell>
        <mxCell id="uAa1DrB2IOAwxMJ53gUC-14" value="成功" style="edgeLabel;html=1;align=center;verticalAlign=middle;resizable=0;points=[];" vertex="1" connectable="0" parent="uAa1DrB2IOAwxMJ53gUC-5">
          <mxGeometry x="-0.45" y="2" relative="1" as="geometry">
            <mxPoint as="offset" />
          </mxGeometry>
        </mxCell>
        <mxCell id="uAa1DrB2IOAwxMJ53gUC-23" value="" style="edgeStyle=orthogonalEdgeStyle;rounded=0;orthogonalLoop=1;jettySize=auto;html=1;" edge="1" parent="WIyWlLk6GJQsqaUBKTNV-1" source="uAa1DrB2IOAwxMJ53gUC-2" target="uAa1DrB2IOAwxMJ53gUC-22">
          <mxGeometry relative="1" as="geometry" />
        </mxCell>
        <mxCell id="uAa1DrB2IOAwxMJ53gUC-24" value="失败" style="edgeLabel;html=1;align=center;verticalAlign=middle;resizable=0;points=[];" vertex="1" connectable="0" parent="uAa1DrB2IOAwxMJ53gUC-23">
          <mxGeometry x="-0.275" relative="1" as="geometry">
            <mxPoint as="offset" />
          </mxGeometry>
        </mxCell>
        <mxCell id="uAa1DrB2IOAwxMJ53gUC-2" value="修改数据库" style="whiteSpace=wrap;html=1;rounded=1;" vertex="1" parent="WIyWlLk6GJQsqaUBKTNV-1">
          <mxGeometry x="425" y="270" width="120" height="60" as="geometry" />
        </mxCell>
        <mxCell id="uAa1DrB2IOAwxMJ53gUC-16" value="" style="edgeStyle=orthogonalEdgeStyle;rounded=0;orthogonalLoop=1;jettySize=auto;html=1;" edge="1" parent="WIyWlLk6GJQsqaUBKTNV-1" source="uAa1DrB2IOAwxMJ53gUC-4" target="uAa1DrB2IOAwxMJ53gUC-15">
          <mxGeometry relative="1" as="geometry" />
        </mxCell>
        <mxCell id="uAa1DrB2IOAwxMJ53gUC-18" value="" style="edgeStyle=orthogonalEdgeStyle;rounded=0;orthogonalLoop=1;jettySize=auto;html=1;" edge="1" parent="WIyWlLk6GJQsqaUBKTNV-1" source="uAa1DrB2IOAwxMJ53gUC-4" target="uAa1DrB2IOAwxMJ53gUC-17">
          <mxGeometry relative="1" as="geometry" />
        </mxCell>
        <mxCell id="uAa1DrB2IOAwxMJ53gUC-21" value="失败" style="edgeLabel;html=1;align=center;verticalAlign=middle;resizable=0;points=[];" vertex="1" connectable="0" parent="uAa1DrB2IOAwxMJ53gUC-18">
          <mxGeometry x="-0.125" y="2" relative="1" as="geometry">
            <mxPoint as="offset" />
          </mxGeometry>
        </mxCell>
        <mxCell id="uAa1DrB2IOAwxMJ53gUC-4" value="发送Mq消息" style="whiteSpace=wrap;html=1;rounded=1;" vertex="1" parent="WIyWlLk6GJQsqaUBKTNV-1">
          <mxGeometry x="625" y="270" width="120" height="60" as="geometry" />
        </mxCell>
        <mxCell id="uAa1DrB2IOAwxMJ53gUC-8" value="" style="edgeStyle=orthogonalEdgeStyle;rounded=0;orthogonalLoop=1;jettySize=auto;html=1;" edge="1" parent="WIyWlLk6GJQsqaUBKTNV-1" source="uAa1DrB2IOAwxMJ53gUC-6" target="uAa1DrB2IOAwxMJ53gUC-7">
          <mxGeometry relative="1" as="geometry" />
        </mxCell>
        <mxCell id="uAa1DrB2IOAwxMJ53gUC-6" value="加总体事务" style="rounded=1;whiteSpace=wrap;html=1;" vertex="1" parent="WIyWlLk6GJQsqaUBKTNV-1">
          <mxGeometry x="210" y="660" width="120" height="60" as="geometry" />
        </mxCell>
        <mxCell id="uAa1DrB2IOAwxMJ53gUC-35" value="" style="edgeStyle=orthogonalEdgeStyle;rounded=0;orthogonalLoop=1;jettySize=auto;html=1;" edge="1" parent="WIyWlLk6GJQsqaUBKTNV-1" source="uAa1DrB2IOAwxMJ53gUC-7" target="uAa1DrB2IOAwxMJ53gUC-34">
          <mxGeometry relative="1" as="geometry" />
        </mxCell>
        <mxCell id="uAa1DrB2IOAwxMJ53gUC-7" value="任务按照微信号划分为多个但微信号的任务" style="whiteSpace=wrap;html=1;rounded=1;" vertex="1" parent="WIyWlLk6GJQsqaUBKTNV-1">
          <mxGeometry x="410" y="660" width="120" height="60" as="geometry" />
        </mxCell>
        <mxCell id="uAa1DrB2IOAwxMJ53gUC-12" value="" style="edgeStyle=orthogonalEdgeStyle;rounded=0;orthogonalLoop=1;jettySize=auto;html=1;" edge="1" parent="WIyWlLk6GJQsqaUBKTNV-1" source="uAa1DrB2IOAwxMJ53gUC-9" target="uAa1DrB2IOAwxMJ53gUC-11">
          <mxGeometry relative="1" as="geometry" />
        </mxCell>
        <mxCell id="uAa1DrB2IOAwxMJ53gUC-13" value="所有修改成功" style="edgeLabel;html=1;align=center;verticalAlign=middle;resizable=0;points=[];" vertex="1" connectable="0" parent="uAa1DrB2IOAwxMJ53gUC-12">
          <mxGeometry x="-0.125" y="1" relative="1" as="geometry">
            <mxPoint as="offset" />
          </mxGeometry>
        </mxCell>
        <mxCell id="uAa1DrB2IOAwxMJ53gUC-38" value="" style="edgeStyle=orthogonalEdgeStyle;rounded=0;orthogonalLoop=1;jettySize=auto;html=1;" edge="1" parent="WIyWlLk6GJQsqaUBKTNV-1" source="uAa1DrB2IOAwxMJ53gUC-9" target="uAa1DrB2IOAwxMJ53gUC-37">
          <mxGeometry relative="1" as="geometry" />
        </mxCell>
        <mxCell id="uAa1DrB2IOAwxMJ53gUC-39" value="失败" style="edgeLabel;html=1;align=center;verticalAlign=middle;resizable=0;points=[];" vertex="1" connectable="0" parent="uAa1DrB2IOAwxMJ53gUC-38">
          <mxGeometry x="-0.2" y="-3" relative="1" as="geometry">
            <mxPoint as="offset" />
          </mxGeometry>
        </mxCell>
        <mxCell id="uAa1DrB2IOAwxMJ53gUC-9" value="单独修改数据库" style="whiteSpace=wrap;html=1;rounded=1;" vertex="1" parent="WIyWlLk6GJQsqaUBKTNV-1">
          <mxGeometry x="810" y="660" width="120" height="60" as="geometry" />
        </mxCell>
        <mxCell id="uAa1DrB2IOAwxMJ53gUC-11" value="批量发送Mq" style="whiteSpace=wrap;html=1;rounded=1;" vertex="1" parent="WIyWlLk6GJQsqaUBKTNV-1">
          <mxGeometry x="1034" y="660" width="120" height="60" as="geometry" />
        </mxCell>
        <mxCell id="uAa1DrB2IOAwxMJ53gUC-15" value="消费成功" style="whiteSpace=wrap;html=1;rounded=1;" vertex="1" parent="WIyWlLk6GJQsqaUBKTNV-1">
          <mxGeometry x="825" y="270" width="120" height="60" as="geometry" />
        </mxCell>
        <mxCell id="uAa1DrB2IOAwxMJ53gUC-17" value="事务回滚" style="whiteSpace=wrap;html=1;rounded=1;" vertex="1" parent="WIyWlLk6GJQsqaUBKTNV-1">
          <mxGeometry x="625" y="130" width="120" height="60" as="geometry" />
        </mxCell>
        <mxCell id="uAa1DrB2IOAwxMJ53gUC-22" value="事务回滚" style="whiteSpace=wrap;html=1;rounded=1;" vertex="1" parent="WIyWlLk6GJQsqaUBKTNV-1">
          <mxGeometry x="425" y="130" width="120" height="60" as="geometry" />
        </mxCell>
        <mxCell id="uAa1DrB2IOAwxMJ53gUC-27" value="" style="edgeStyle=orthogonalEdgeStyle;rounded=0;orthogonalLoop=1;jettySize=auto;html=1;" edge="1" parent="WIyWlLk6GJQsqaUBKTNV-1" source="uAa1DrB2IOAwxMJ53gUC-25" target="uAa1DrB2IOAwxMJ53gUC-1">
          <mxGeometry relative="1" as="geometry" />
        </mxCell>
        <mxCell id="uAa1DrB2IOAwxMJ53gUC-25" value="单个微信号进行保存发送" style="whiteSpace=wrap;html=1;rounded=1;" vertex="1" parent="WIyWlLk6GJQsqaUBKTNV-1">
          <mxGeometry x="25" y="270" width="120" height="60" as="geometry" />
        </mxCell>
        <mxCell id="uAa1DrB2IOAwxMJ53gUC-33" value="" style="edgeStyle=orthogonalEdgeStyle;rounded=0;orthogonalLoop=1;jettySize=auto;html=1;" edge="1" parent="WIyWlLk6GJQsqaUBKTNV-1" source="uAa1DrB2IOAwxMJ53gUC-31" target="uAa1DrB2IOAwxMJ53gUC-6">
          <mxGeometry relative="1" as="geometry" />
        </mxCell>
        <mxCell id="uAa1DrB2IOAwxMJ53gUC-31" value="多个微信号进行保存发送" style="whiteSpace=wrap;html=1;rounded=1;" vertex="1" parent="WIyWlLk6GJQsqaUBKTNV-1">
          <mxGeometry x="10" y="660" width="120" height="60" as="geometry" />
        </mxCell>
        <mxCell id="uAa1DrB2IOAwxMJ53gUC-36" value="" style="edgeStyle=orthogonalEdgeStyle;rounded=0;orthogonalLoop=1;jettySize=auto;html=1;" edge="1" parent="WIyWlLk6GJQsqaUBKTNV-1" source="uAa1DrB2IOAwxMJ53gUC-34" target="uAa1DrB2IOAwxMJ53gUC-9">
          <mxGeometry relative="1" as="geometry" />
        </mxCell>
        <mxCell id="uAa1DrB2IOAwxMJ53gUC-41" value="" style="edgeStyle=orthogonalEdgeStyle;rounded=0;orthogonalLoop=1;jettySize=auto;html=1;" edge="1" parent="WIyWlLk6GJQsqaUBKTNV-1" source="uAa1DrB2IOAwxMJ53gUC-34" target="uAa1DrB2IOAwxMJ53gUC-40">
          <mxGeometry relative="1" as="geometry" />
        </mxCell>
        <mxCell id="uAa1DrB2IOAwxMJ53gUC-42" value="失败" style="edgeLabel;html=1;align=center;verticalAlign=middle;resizable=0;points=[];" vertex="1" connectable="0" parent="uAa1DrB2IOAwxMJ53gUC-41">
          <mxGeometry x="-0.275" y="-4" relative="1" as="geometry">
            <mxPoint as="offset" />
          </mxGeometry>
        </mxCell>
        <mxCell id="uAa1DrB2IOAwxMJ53gUC-34" value="每个任务创建单独的事务" style="whiteSpace=wrap;html=1;rounded=1;" vertex="1" parent="WIyWlLk6GJQsqaUBKTNV-1">
          <mxGeometry x="610" y="660" width="120" height="60" as="geometry" />
        </mxCell>
        <mxCell id="uAa1DrB2IOAwxMJ53gUC-37" value="事务回滚" style="whiteSpace=wrap;html=1;rounded=1;" vertex="1" parent="WIyWlLk6GJQsqaUBKTNV-1">
          <mxGeometry x="810" y="800" width="120" height="60" as="geometry" />
        </mxCell>
        <mxCell id="uAa1DrB2IOAwxMJ53gUC-40" value="事务回滚" style="whiteSpace=wrap;html=1;rounded=1;" vertex="1" parent="WIyWlLk6GJQsqaUBKTNV-1">
          <mxGeometry x="610" y="800" width="120" height="60" as="geometry" />
        </mxCell>
        <mxCell id="uAa1DrB2IOAwxMJ53gUC-55" value="" style="edgeStyle=orthogonalEdgeStyle;rounded=0;orthogonalLoop=1;jettySize=auto;html=1;" edge="1" parent="WIyWlLk6GJQsqaUBKTNV-1" source="uAa1DrB2IOAwxMJ53gUC-44" target="uAa1DrB2IOAwxMJ53gUC-54">
          <mxGeometry relative="1" as="geometry" />
        </mxCell>
        <mxCell id="uAa1DrB2IOAwxMJ53gUC-56" value="任意过程失败" style="edgeLabel;html=1;align=center;verticalAlign=middle;resizable=0;points=[];" vertex="1" connectable="0" parent="uAa1DrB2IOAwxMJ53gUC-55">
          <mxGeometry x="0.0087" y="-1" relative="1" as="geometry">
            <mxPoint as="offset" />
          </mxGeometry>
        </mxCell>
        <mxCell id="uAa1DrB2IOAwxMJ53gUC-44" value="" style="rounded=1;whiteSpace=wrap;html=1;fillColor=none;" vertex="1" parent="WIyWlLk6GJQsqaUBKTNV-1">
          <mxGeometry x="385" y="630" width="800" height="130" as="geometry" />
        </mxCell>
        <mxCell id="uAa1DrB2IOAwxMJ53gUC-45" value="" style="edgeStyle=orthogonalEdgeStyle;rounded=0;orthogonalLoop=1;jettySize=auto;html=1;" edge="1" parent="WIyWlLk6GJQsqaUBKTNV-1" target="uAa1DrB2IOAwxMJ53gUC-47">
          <mxGeometry relative="1" as="geometry">
            <mxPoint x="465" y="720" as="sourcePoint" />
            <Array as="points">
              <mxPoint x="466" y="720" />
              <mxPoint x="466" y="761" />
              <mxPoint x="465" y="761" />
            </Array>
          </mxGeometry>
        </mxCell>
        <mxCell id="uAa1DrB2IOAwxMJ53gUC-46" value="失败" style="edgeLabel;html=1;align=center;verticalAlign=middle;resizable=0;points=[];" vertex="1" connectable="0" parent="uAa1DrB2IOAwxMJ53gUC-45">
          <mxGeometry x="-0.275" y="-4" relative="1" as="geometry">
            <mxPoint as="offset" />
          </mxGeometry>
        </mxCell>
        <mxCell id="uAa1DrB2IOAwxMJ53gUC-47" value="事务回滚" style="whiteSpace=wrap;html=1;rounded=1;" vertex="1" parent="WIyWlLk6GJQsqaUBKTNV-1">
          <mxGeometry x="405" y="800" width="120" height="60" as="geometry" />
        </mxCell>
        <mxCell id="uAa1DrB2IOAwxMJ53gUC-48" value="" style="edgeStyle=orthogonalEdgeStyle;rounded=0;orthogonalLoop=1;jettySize=auto;html=1;" edge="1" parent="WIyWlLk6GJQsqaUBKTNV-1" target="uAa1DrB2IOAwxMJ53gUC-50">
          <mxGeometry relative="1" as="geometry">
            <mxPoint x="1094" y="720" as="sourcePoint" />
          </mxGeometry>
        </mxCell>
        <mxCell id="uAa1DrB2IOAwxMJ53gUC-49" value="失败" style="edgeLabel;html=1;align=center;verticalAlign=middle;resizable=0;points=[];" vertex="1" connectable="0" parent="uAa1DrB2IOAwxMJ53gUC-48">
          <mxGeometry x="-0.275" y="-4" relative="1" as="geometry">
            <mxPoint as="offset" />
          </mxGeometry>
        </mxCell>
        <mxCell id="uAa1DrB2IOAwxMJ53gUC-50" value="事务回滚" style="whiteSpace=wrap;html=1;rounded=1;" vertex="1" parent="WIyWlLk6GJQsqaUBKTNV-1">
          <mxGeometry x="1034" y="800" width="120" height="60" as="geometry" />
        </mxCell>
        <mxCell id="uAa1DrB2IOAwxMJ53gUC-51" value="" style="rounded=1;whiteSpace=wrap;html=1;fillColor=none;" vertex="1" parent="WIyWlLk6GJQsqaUBKTNV-1">
          <mxGeometry y="120" width="1010" height="220" as="geometry" />
        </mxCell>
        <mxCell id="uAa1DrB2IOAwxMJ53gUC-54" value="总体事务回滚" style="whiteSpace=wrap;html=1;fillColor=none;rounded=1;" vertex="1" parent="WIyWlLk6GJQsqaUBKTNV-1">
          <mxGeometry x="725" y="455" width="120" height="60" as="geometry" />
        </mxCell>
        <mxCell id="uAa1DrB2IOAwxMJ53gUC-62" value="原先逻辑" style="text;html=1;strokeColor=none;fillColor=none;align=center;verticalAlign=middle;whiteSpace=wrap;rounded=0;" vertex="1" parent="WIyWlLk6GJQsqaUBKTNV-1">
          <mxGeometry x="10" y="140" width="60" height="30" as="geometry" />
        </mxCell>
        <mxCell id="uAa1DrB2IOAwxMJ53gUC-63" value="" style="rounded=1;whiteSpace=wrap;html=1;fillColor=none;" vertex="1" parent="WIyWlLk6GJQsqaUBKTNV-1">
          <mxGeometry y="430" width="1250" height="470" as="geometry" />
        </mxCell>
        <mxCell id="uAa1DrB2IOAwxMJ53gUC-66" value="新逻辑" style="text;html=1;strokeColor=none;fillColor=none;align=center;verticalAlign=middle;whiteSpace=wrap;rounded=0;" vertex="1" parent="WIyWlLk6GJQsqaUBKTNV-1">
          <mxGeometry x="25" y="470" width="60" height="30" as="geometry" />
        </mxCell>
      </root>
    </mxGraphModel>
  </diagram>
</mxfile>
